<svg width="56" height="56" viewBox="0 0 56 56" fill="none" xmlns="http://www.w3.org/2000/svg">
<g filter="url(#filter0_dd_1278_1023)">
<rect x="8" y="6" width="40" height="40" rx="8" fill="white"/>
</g>
<path d="M29.9705 21.021V22.9645C29.9705 24.0442 29.0798 24.935 28 24.935C26.9203 24.935 26.0296 24.0442 26.0296 22.9645V21.021L20.9009 24.0712L28 28.3361L35.0992 24.0982L29.9705 21.021Z" fill="#E21F26"/>
<path d="M31.4008 30.8733C31.9407 29.9285 33.1554 29.6046 34.1001 30.1445L35.8277 31.1432V25.3667L28.7285 29.6046V37.8105L34.0191 34.6523L32.1296 33.5456C31.1849 33.0327 30.861 31.818 31.4008 30.8733Z" fill="#E21F26"/>
<path d="M20.145 31.1432L21.8726 30.1445C22.8173 29.5776 24.032 29.9285 24.5989 30.8733C25.1387 31.818 24.8148 33.0327 23.8701 33.5726L21.9805 34.6523L27.2712 37.8105V29.6046L20.145 25.3667V31.1432Z" fill="#E21F26"/>
<path d="M26.1372 17.8626L27.2439 16.7559V22.9913C27.2439 23.3962 27.5679 23.7471 27.9998 23.7471C28.4316 23.7471 28.7556 23.4232 28.7556 22.9913V16.7289L29.8623 17.8356C29.9972 17.9706 30.1862 18.0516 30.3751 18.0516C30.5641 18.0516 30.753 17.9706 30.888 17.8356C31.1849 17.5387 31.1849 17.0798 30.888 16.7829L28.5126 14.4075C28.2427 14.1376 27.7298 14.1376 27.4599 14.4075L25.0845 16.7829C24.7876 17.0798 24.7876 17.5387 25.0845 17.8356C25.3814 18.1326 25.8403 18.1326 26.1372 17.8626Z" fill="#E21F26"/>
<path d="M19.3624 36.0289L17.8508 35.624L23.2494 32.5198C23.6003 32.3038 23.7352 31.8719 23.5193 31.494C23.3034 31.1431 22.8715 31.0082 22.4936 31.2241L17.095 34.3283L17.4999 32.8167C17.6078 32.4118 17.3649 32.0069 16.987 31.8989C16.5821 31.791 16.1772 32.0339 16.0692 32.4118L15.2055 35.678C15.0975 36.0829 15.3404 36.4877 15.7183 36.5957L18.9845 37.4595C19.0385 37.4865 19.1194 37.4865 19.1734 37.4865C19.4973 37.4865 19.7943 37.2705 19.9022 36.9466C20.0102 36.5417 19.7673 36.1368 19.3624 36.0289Z" fill="#E21F26"/>
<path d="M40.7948 35.678L39.931 32.4118C39.823 32.0069 39.4182 31.791 39.0133 31.8989C38.6084 32.0069 38.3924 32.4118 38.5004 32.8167L38.9053 34.3283L33.5067 31.2241C33.1558 31.0082 32.6969 31.1431 32.4809 31.494C32.265 31.845 32.4 32.3038 32.7509 32.5198L38.1495 35.624L36.6379 36.0289C36.233 36.1368 36.017 36.5417 36.125 36.9466C36.206 37.2705 36.5029 37.4865 36.8538 37.4865C36.9078 37.4865 36.9888 37.4865 37.0428 37.4595L40.3089 36.5957C40.6598 36.4877 40.9028 36.0829 40.7948 35.678Z" fill="#E21F26"/>
<defs>
<filter id="filter0_dd_1278_1023" x="0" y="0" width="56" height="56" filterUnits="userSpaceOnUse" color-interpolation-filters="sRGB">
<feFlood flood-opacity="0" result="BackgroundImageFix"/>
<feColorMatrix in="SourceAlpha" type="matrix" values="0 0 0 0 0 0 0 0 0 0 0 0 0 0 0 0 0 0 127 0" result="hardAlpha"/>
<feMorphology radius="2" operator="dilate" in="SourceAlpha" result="effect1_dropShadow_1278_1023"/>
<feOffset dy="2"/>
<feGaussianBlur stdDeviation="3"/>
<feColorMatrix type="matrix" values="0 0 0 0 0 0 0 0 0 0 0 0 0 0 0 0 0 0 0.15 0"/>
<feBlend mode="normal" in2="BackgroundImageFix" result="effect1_dropShadow_1278_1023"/>
<feColorMatrix in="SourceAlpha" type="matrix" values="0 0 0 0 0 0 0 0 0 0 0 0 0 0 0 0 0 0 127 0" result="hardAlpha"/>
<feOffset dy="1"/>
<feGaussianBlur stdDeviation="1"/>
<feColorMatrix type="matrix" values="0 0 0 0 0 0 0 0 0 0 0 0 0 0 0 0 0 0 0.3 0"/>
<feBlend mode="normal" in2="effect1_dropShadow_1278_1023" result="effect2_dropShadow_1278_1023"/>
<feBlend mode="normal" in="SourceGraphic" in2="effect2_dropShadow_1278_1023" result="shape"/>
</filter>
</defs>
</svg>
