<svg width="25" height="25" viewBox="0 0 25 25" fill="none" xmlns="http://www.w3.org/2000/svg">
<path d="M12.1689 0.0528479C12.1689 0.969095 12.1689 1.83946 12.1689 2.76037C11.9413 2.77566 11.7352 2.80159 11.529 2.80226C8.93768 2.80624 6.34636 2.80625 3.75503 2.80757C2.87738 2.80824 2.76255 2.91995 2.76255 3.78433C2.76188 9.63156 2.76255 15.4795 2.76255 21.3267C2.76255 21.4504 2.75785 21.574 2.76792 21.6964C2.79478 22.0169 2.96736 22.1884 3.28901 22.2143C3.41257 22.2243 3.53814 22.2203 3.66236 22.2203C9.55546 22.2203 15.4486 22.2203 21.341 22.2203C22.1407 22.2203 22.2509 22.1159 22.2509 21.3267C22.2522 15.4422 22.2522 9.55775 22.2509 3.67329C22.2509 2.86609 22.128 2.7484 21.3208 2.74707C20.8991 2.7464 20.4781 2.74707 19.9859 2.74707C19.9657 1.82218 19.9704 0.945159 19.9832 0.0435392C20.145 0.0255866 20.2525 0.00497457 20.3606 0.00430966C20.8468 0.000985101 21.3323 -0.00433427 21.8184 0.00630431C23.5153 0.0428744 24.8926 1.37203 24.9846 3.05492C24.9926 3.20253 24.996 3.35081 24.996 3.49908C24.9966 9.49459 24.9933 15.4901 25 21.4856C25.0007 22.2469 24.863 22.959 24.4091 23.586C23.8269 24.3913 23.0432 24.8687 22.038 24.9624C21.803 24.9844 21.5659 24.9983 21.3296 24.9983C15.4492 25.0003 9.56889 25.0016 3.68788 24.9957C3.31587 24.995 2.9358 24.9784 2.57386 24.9019C1.09857 24.5894 0.0308843 23.2908 0.00805324 21.7948C-0.00671979 20.8326 0.00335224 19.8705 0.00335224 18.9084C0.00335224 13.752 0.0060387 8.59496 0.000666683 3.43857C-4.81809e-06 2.54892 0.253823 1.763 0.858846 1.09809C1.50416 0.389293 2.3207 0.0249223 3.27424 0.0202679C6.11469 0.00563984 8.95514 0.0136183 11.7956 0.015613C11.9044 0.0149481 12.0132 0.0362251 12.1689 0.0528479Z" fill="white"/>
<path d="M14.3172 6.93996C14.3276 6.72993 14.3407 6.58195 14.3413 6.43398C14.3441 5.5359 14.3303 4.63782 14.3469 3.74042C14.3703 2.48297 14.8424 1.42669 15.8576 0.640442C16.4083 0.213564 17.0376 -0.00601202 17.7426 0.000125201C18.1245 0.00353477 18.5063 0.00080674 18.8695 0.00080674C19.0122 0.300849 19.0473 2.28181 18.9274 2.80824C18.8075 2.82393 18.6731 2.85121 18.538 2.85666C18.283 2.86689 18.0259 2.85052 17.7716 2.87098C17.4194 2.89962 17.2485 3.0851 17.2271 3.43561C17.2181 3.58699 17.2223 3.73906 17.2223 3.89044C17.2223 8.60723 17.2223 13.3247 17.2223 18.0415C17.2223 18.2406 17.2223 18.4391 17.2223 18.6143C16.8494 18.7616 14.7576 18.7684 14.382 18.6382C14.3599 18.4909 14.3358 18.332 14.3076 18.1424C14.2228 18.1758 14.1525 18.1929 14.0939 18.2284C11.131 20.0204 7.28165 18.5529 6.35396 15.2532C5.84739 13.4502 5.84325 11.6349 6.61242 9.90219C7.44776 8.02079 8.87927 6.80426 10.9848 6.49603C11.9835 6.3501 12.9739 6.42921 13.9251 6.80494C14.0284 6.84654 14.1366 6.87859 14.3172 6.93996ZM14.342 12.7171C14.342 11.7945 14.3317 10.8726 14.3475 9.95061C14.3531 9.64852 14.2428 9.46236 13.9891 9.30279C12.2675 8.21923 9.87312 9.06344 9.22112 11.0069C8.88823 11.9991 8.85928 13.0206 9.07294 14.04C9.51955 16.1744 11.9601 17.2553 13.8961 16.1969C14.2076 16.0265 14.36 15.8185 14.3503 15.4475C14.3255 14.5372 14.342 13.6268 14.342 12.7171Z" fill="white"/>
</svg>
