<svg width="25" height="24" viewBox="0 0 25 24" fill="none" xmlns="http://www.w3.org/2000/svg">
<path d="M5.9513 21.2916C5.01501 21.2916 4.19677 21.29 3.45075 21.2872C1.69297 21.2799 0.149392 19.7351 0.146958 17.9814C0.140467 13.0914 0.140467 8.20103 0.146958 3.44616C0.149392 1.6896 1.695 0.147647 3.4548 0.146024C6.54683 0.143185 9.60478 0.141968 12.5439 0.141968C15.5994 0.141968 18.6318 0.14359 21.5571 0.14643C23.3112 0.148053 24.8515 1.69569 24.854 3.45793C24.8588 7.26799 24.8576 11.1417 24.8564 14.8881L24.8556 17.8256C24.8556 18.2876 24.5465 18.6102 24.1043 18.6102C23.6629 18.6089 23.3562 18.282 23.3562 17.8154C23.3554 15.2252 23.3554 12.6354 23.3558 10.0452V7.01404H1.6451V10.3827C1.6451 12.8192 1.6447 15.2557 1.64551 17.6917C1.64551 18.3201 1.84104 18.8487 2.2102 19.2195C2.57936 19.5907 3.10552 19.787 3.73147 19.7874C4.32821 19.7878 4.92495 19.7878 5.5217 19.7878H7.5249C8.28756 19.7878 9.04982 19.7878 9.81208 19.7886C10.1914 19.789 10.5244 20.0657 10.5695 20.4182C10.619 20.8028 10.4019 21.1484 10.0417 21.258C9.9565 21.2839 9.85792 21.2872 9.78125 21.2872C9.31756 21.2876 8.85429 21.2884 8.3906 21.2888C7.57764 21.2908 6.76427 21.2916 5.9513 21.2916ZM3.67873 1.64457C3.64222 1.64457 3.60571 1.64498 3.5688 1.64579C2.57409 1.67581 1.80453 2.34517 1.69743 3.27375C1.64307 3.74474 1.65646 4.22951 1.66944 4.69847C1.67512 4.9082 1.68121 5.12483 1.68121 5.33902V5.48101H23.3554V4.86398C23.3554 4.5005 23.3554 4.14392 23.3554 3.78733C23.355 3.11392 23.1643 2.58289 22.7887 2.20846C22.413 1.83443 21.88 1.64457 21.2041 1.64457H3.79638H3.67873Z" fill="white"/>
<path d="M12.5519 0.28397C15.6066 0.28397 18.6365 0.285593 21.5574 0.288432C22.3529 0.289244 23.1557 0.637715 23.7598 1.2446C24.3642 1.85189 24.7115 2.65836 24.7123 3.45794C24.7171 7.26274 24.7159 11.1312 24.7147 14.8727C24.7143 15.8569 24.7139 16.8414 24.7139 17.8256C24.7139 18.2041 24.4632 18.4686 24.1046 18.4686H24.1022C23.7468 18.4674 23.4985 18.1992 23.4985 17.8159C23.4977 15.235 23.4977 12.6537 23.4981 10.0728V7.52115V7.15645V6.87248H23.2141H1.78739H1.50342V7.15645V7.4534V10.3406C1.50342 12.7912 1.50301 15.2419 1.50382 17.6925C1.50423 19.0511 2.37886 19.9294 3.73177 19.9302C4.33014 19.9306 4.92891 19.9306 5.52727 19.9306H6.52563H7.52399C8.28665 19.9306 9.04931 19.9306 9.81238 19.9314C10.1219 19.9319 10.3929 20.1538 10.4294 20.4373C10.47 20.7521 10.2939 21.0341 10.0014 21.1229C9.93367 21.1436 9.84402 21.146 9.78236 21.146C9.31746 21.1464 8.85256 21.1468 8.38766 21.1476C7.59011 21.1489 6.76579 21.1497 5.95485 21.1497C5.01734 21.1497 4.1987 21.1481 3.45186 21.1452C2.65431 21.142 1.84946 20.7931 1.24419 20.1874C0.638527 19.5818 0.290867 18.7777 0.28965 17.981C0.283159 13.0947 0.283159 8.2047 0.28965 3.44618C0.290867 2.64944 0.638933 1.84581 1.24541 1.24095C1.85189 0.636093 2.65755 0.288838 3.45591 0.288027C6.55078 0.285593 9.61157 0.28397 12.5519 0.28397ZM1.53993 5.62342H1.8239H23.2137H23.4977V5.33945V4.84575C23.4977 4.48875 23.4977 4.13825 23.4977 3.78775C23.4969 2.35736 22.6397 1.50342 21.204 1.50342C18.6163 1.50342 16.0277 1.50342 13.4395 1.50342H6.81041H3.79627C3.77721 1.50342 3.75773 1.50342 3.73867 1.50342C3.71879 1.50342 3.69851 1.50342 3.67863 1.50342C3.6336 1.50342 3.59831 1.50382 3.56463 1.50504C2.49772 1.53709 1.67177 2.25837 1.55656 3.25835C1.50098 3.73948 1.51478 4.22953 1.52776 4.70335C1.53344 4.91187 1.53952 5.12769 1.53952 5.34026V5.62342M12.5519 0C9.51948 0 6.48709 0.00162262 3.4547 0.00405665C1.6235 0.00567934 0.00730208 1.61782 0.00486806 3.44577C-0.00162269 8.29111 -0.00162269 13.136 0.00486806 17.9814C0.00730208 19.8102 1.62147 21.4215 3.45024 21.4292C4.28511 21.4324 5.11957 21.4336 5.95444 21.4336C7.23028 21.4336 8.50612 21.4312 9.78195 21.43C9.88256 21.43 9.98804 21.4235 10.0834 21.3943C10.5134 21.2633 10.7685 20.8523 10.7105 20.4004C10.6562 19.9773 10.2692 19.6475 9.81238 19.6471C9.04931 19.6463 8.28665 19.6463 7.52399 19.6463C6.85828 19.6463 6.19257 19.6463 5.52687 19.6463C4.9285 19.6463 4.33014 19.6463 3.73177 19.6459C2.53464 19.645 1.7882 18.895 1.78779 17.6921C1.78698 14.2792 1.78739 10.8663 1.78739 7.4534C1.78739 7.35523 1.78739 7.25746 1.78739 7.15645C8.94546 7.15645 16.0646 7.15645 23.2141 7.15645C23.2141 7.29925 23.2141 7.4104 23.2141 7.52115C23.2141 10.9527 23.2137 14.3843 23.2145 17.8159C23.2145 18.3591 23.589 18.7509 24.1013 18.7522C24.1026 18.7522 24.1034 18.7522 24.1046 18.7522C24.6206 18.7522 24.9979 18.366 24.9979 17.8256C24.9991 13.0363 25.0027 8.24689 24.9963 3.45754C24.9938 1.62471 23.3841 0.0060851 21.5574 0.00446241C18.5554 0.00162271 15.5538 0 12.5519 0ZM1.8239 5.33945C1.8239 4.6421 1.76224 3.95814 1.83931 3.29C1.94195 2.39914 2.67581 1.81497 3.57397 1.78779C3.60926 1.78658 3.64415 1.78658 3.67944 1.78658C3.71879 1.78658 3.75773 1.78698 3.79708 1.78698C7.01162 1.78698 10.2258 1.78698 13.4403 1.78698C16.0281 1.78698 18.6167 1.78698 21.2048 1.78698C22.4847 1.78698 23.2137 2.51313 23.2145 3.78775C23.215 4.29849 23.2145 4.80883 23.2145 5.33945C16.0735 5.33945 8.94749 5.33945 1.8239 5.33945Z" fill="white"/>
<path d="M16.5076 23.0773C15.4553 23.0773 14.3977 23.0765 13.364 23.0744C12.4764 23.0728 11.7527 22.3483 11.7511 21.459C11.7499 20.7897 11.7523 20.1086 11.7543 19.4502C11.7588 18.0964 11.7637 16.6969 11.7381 15.3196C11.7223 14.4714 12.291 13.5821 13.4083 13.5225L13.5535 13.5148L13.5421 13.37C13.459 12.286 13.7657 11.4345 14.4809 10.7672C15.0435 10.2422 15.7157 9.97286 16.4788 9.96637H16.5088C17.4049 9.96637 18.1627 10.3071 18.7615 10.9793C19.3225 11.6097 19.57 12.4 19.4966 13.3282L19.4877 13.443L19.5984 13.4754C19.6917 13.5026 19.783 13.5253 19.871 13.5472C20.0487 13.591 20.217 13.6324 20.3615 13.7046C20.97 14.0077 21.2799 14.4969 21.2827 15.1594C21.2917 17.3492 21.2884 19.5613 21.2844 21.4631C21.2827 22.3499 20.557 23.0728 19.6674 23.0744C18.6086 23.0765 17.5457 23.0773 16.5076 23.0773ZM13.2675 21.5548H19.772V15.0539H13.2675V21.5548ZM16.5137 11.4633C16.2325 11.4633 15.9555 11.5542 15.691 11.7335C15.0086 12.1955 14.9997 12.9046 15.0529 13.3979L15.0666 13.5249H17.9733L17.9855 13.3963C18.0341 12.8811 18.0147 12.1444 17.2857 11.6962C17.0337 11.5416 16.7741 11.4633 16.5137 11.4633Z" fill="white"/>
<path d="M16.5079 10.1079C17.3618 10.1079 18.0839 10.4329 18.6543 11.0734C19.1886 11.6738 19.4243 12.4284 19.3541 13.3168L19.3358 13.5468L19.5573 13.6117C19.6535 13.6397 19.7464 13.6628 19.836 13.6847C20.006 13.7265 20.1667 13.7663 20.2973 13.8312C20.8539 14.1083 21.137 14.5553 21.1399 15.1594C21.1488 17.3435 21.1455 19.5581 21.1415 21.4623C21.1399 22.2712 20.4782 22.9304 19.6661 22.932C18.606 22.9341 17.5424 22.9349 16.5043 22.9349C15.4524 22.9349 14.396 22.9341 13.364 22.932C12.5542 22.9304 11.8942 22.2696 11.8926 21.4586C11.8914 20.7897 11.8938 20.109 11.8958 19.451C11.9003 18.0964 11.9052 16.6956 11.8796 15.3172C11.8654 14.5371 12.3879 13.7192 13.4151 13.6645L13.7055 13.649L13.6832 13.359C13.6033 12.3209 13.8958 11.5067 14.5773 10.871C15.1132 10.3712 15.753 10.1144 16.4795 10.1084C16.4888 10.1079 16.4986 10.1079 16.5079 10.1079ZM14.938 13.6665H15.1931H17.843H18.1014L18.1257 13.4093C18.1781 12.8564 18.1553 12.0645 17.359 11.5749C17.0848 11.4065 16.8004 11.3209 16.5132 11.3209C16.2032 11.3209 15.8994 11.4199 15.611 11.6154C15.0511 11.9947 14.8223 12.5825 14.9112 13.4125L14.938 13.6665ZM13.125 21.6964H13.409H19.6296H19.9135V21.4124V15.1955V14.9115H19.6296H13.409H13.125V15.1955V21.4124V21.6964ZM16.5079 9.82397C16.4978 9.82397 16.4872 9.82397 16.4771 9.82397C15.6698 9.83047 14.97 10.1157 14.3838 10.6629C13.6033 11.3915 13.3181 12.3132 13.4005 13.3805C12.209 13.4438 11.579 14.3967 11.596 15.322C11.6338 17.367 11.6054 19.4132 11.609 21.459C11.6106 22.427 12.3964 23.2144 13.364 23.216C14.411 23.218 15.4576 23.2188 16.5047 23.2188C17.5586 23.2188 18.6129 23.218 19.6669 23.216C20.6364 23.2144 21.4234 22.4306 21.4255 21.4627C21.4299 19.3613 21.4324 17.2595 21.4238 15.1581C21.421 14.4328 21.0677 13.8977 20.4243 13.5768C20.191 13.4608 19.9196 13.4215 19.6377 13.3387C19.7091 12.4357 19.4949 11.5895 18.8669 10.8844C18.2401 10.181 17.4511 9.82397 16.5079 9.82397ZM15.1931 13.3825C15.1266 12.7639 15.2292 12.2166 15.7696 11.8507C16.011 11.6872 16.2609 11.6049 16.5128 11.6049C16.7452 11.6049 16.9797 11.6751 17.2101 11.8166C17.7919 12.1744 17.9042 12.7355 17.843 13.3825C16.9444 13.3825 16.0747 13.3825 15.1931 13.3825ZM13.409 21.4124C13.409 19.3447 13.409 17.2774 13.409 15.1955C15.4771 15.1955 17.5371 15.1955 19.6296 15.1955C19.6296 17.2713 19.6296 19.3321 19.6296 21.4124C17.5602 21.4124 15.4933 21.4124 13.409 21.4124Z" fill="white"/>
<path d="M3.57536 4.32637C3.36644 4.32637 3.17456 4.24888 3.03501 4.10893C2.89749 3.97059 2.82244 3.78236 2.82325 3.57912C2.82528 3.14667 3.14697 2.82051 3.5709 2.8197C4.00132 2.8197 4.32545 3.14221 4.32667 3.56938C4.32788 3.99939 4.00578 4.32515 3.5782 4.32637H3.57536Z" fill="white"/>
<path d="M3.57242 2.67773V2.9617C3.92617 2.9617 4.18377 3.21728 4.18458 3.56981C4.18539 3.92477 3.93023 4.18359 3.5777 4.1848H3.57526C3.40448 4.1848 3.24829 4.12233 3.13552 4.00915C3.02477 3.89799 2.96432 3.74546 2.96513 3.57995C2.96716 3.22215 3.22192 2.96252 3.57121 2.9617L3.57242 2.67773ZM3.57242 2.67773C3.57202 2.67773 3.57121 2.67773 3.5708 2.67773C3.06696 2.67855 2.684 3.06637 2.68116 3.57832C2.67873 4.08095 3.06817 4.46877 3.57526 4.46877C3.57648 4.46877 3.5777 4.46877 3.57851 4.46877C4.08519 4.46715 4.46977 4.07852 4.46855 3.5694C4.46774 3.0615 4.08114 2.67773 3.57242 2.67773Z" fill="white"/>
<path d="M6.24836 4.32513C6.04025 4.32472 5.84959 4.24724 5.71125 4.10688C5.57373 3.96732 5.49909 3.77706 5.50152 3.57098C5.50639 3.14259 5.82971 2.81927 6.25323 2.81927C6.68284 2.8209 7.00413 3.14584 7.00332 3.57585C7.00251 4.00302 6.67837 4.32472 6.24999 4.32472H6.24836V4.32513Z" fill="white"/>
<path d="M6.25313 2.96183H6.25557C6.60728 2.96304 6.86204 3.22146 6.86123 3.57642C6.86042 3.92814 6.60322 4.18371 6.24867 4.18371C6.07869 4.1833 5.92373 4.12083 5.81217 4.00805C5.70142 3.89568 5.64138 3.74153 5.643 3.57358C5.64746 3.21862 5.90385 2.96183 6.25313 2.96183ZM6.25313 2.67786C5.74888 2.67786 5.36512 3.0604 5.35944 3.56993C5.35376 4.07621 5.74036 4.46646 6.24826 4.46768C6.24907 4.46768 6.24948 4.46768 6.25029 4.46768C6.7586 4.46768 7.14439 4.08391 7.1452 3.57723C7.14642 3.0669 6.76387 2.67988 6.25678 2.67826C6.25557 2.67786 6.25435 2.67786 6.25313 2.67786Z" fill="white"/>
</svg>
